<svg width="21" height="17" viewBox="0 0 21 17" fill="none" xmlns="http://www.w3.org/2000/svg">
  <path fill-rule="evenodd" clip-rule="evenodd" d="M8 0L16.4142 8.41421L8 16.8284V12.248C5.95556 12.0231 3.87631 12.9521 1.70711 15.1213L0 16.8284V14.4142C0 8.26491 2.73892 4.82711 8 4.44915V0ZM10 4.82843V6.41421H9C4.97795 6.41421 2.75046 8.22421 2.1604 12.0967C4.47384 10.416 6.84725 9.84525 9.24254 10.4441L10 10.6334V12L13.5858 8.41421L10 4.82843ZM12 0V3L17.4142 8.41421L12 13.8284V16.8284L20.4142 8.41421L12 0Z" fill="#B6BDFC"/>
</svg>
